Coordinates
version=1
nRows=38
nColumns=12
inDegrees=yes

Units are S.I. units (second, meters, Newtons, ...)
Angles are in degrees

endheader
time	SC_y	SC_z	SC_x	AC_y	AC_z	AC_x	GH_y	GH_z	GH_yy	EL_x	PS_y
       0.0              -38.58          16.85          76.18          63.49         -13.07           9.38         -74.86          81.81         -163.3           59.7          84.89
  0.003689              -38.59          16.85          76.18          63.49         -13.07          9.377         -74.83          81.79         -163.3          59.71          84.89
  0.007377              -38.59          16.85          76.17          63.48         -13.07          9.373          -74.8          81.78         -163.2          59.71          84.88
   0.01107              -38.59          16.85          76.16          63.48         -13.07          9.368         -74.76          81.76         -163.2          59.71          84.88
   0.01475              -38.59          16.84          76.15          63.47         -13.06          9.364         -74.73          81.75         -163.2          59.72          84.87
   0.01844               -38.6          16.84          76.14          63.47         -13.06          9.359         -74.69          81.73         -163.2          59.72          84.87
   0.02213               -38.6          16.84          76.13          63.46         -13.05          9.354         -74.65          81.71         -163.2          59.72          84.86
   0.02582              -38.61          16.84          76.12          63.46         -13.05          9.348         -74.61          81.69         -163.2          59.73          84.86
   0.02951              -38.61          16.84          76.11          63.45         -13.04          9.342         -74.56          81.67         -163.1          59.73          84.85
    0.0332              -38.61          16.83           76.1          63.44         -13.04          9.336         -74.51          81.64         -163.1          59.74          84.84
   0.03689              -38.62          16.83          76.09          63.43         -13.03          9.329         -74.45          81.62         -163.1          59.74          84.83
   0.04058              -38.63          16.83          76.07          63.43         -13.03          9.322          -74.4          81.59         -163.1          59.75          84.83
   0.04426              -38.63          16.82          76.06          63.42         -13.02          9.314         -74.33          81.56         -163.0          59.75          84.82
   0.04795              -38.64          16.82          76.04          63.41         -13.02          9.305         -74.27          81.53         -163.0          59.76          84.81
   0.05164              -38.64          16.82          76.03           63.4         -13.01          9.296         -74.19           81.5         -163.0          59.77           84.8
   0.05533              -38.65          16.81          76.01          63.38          -13.0          9.286         -74.11          81.46         -162.9          59.78          84.78
   0.05902              -38.66          16.81          75.99          63.37         -12.99          9.275         -74.03          81.42         -162.9          59.78          84.77
   0.06271              -38.67           16.8          75.96          63.36         -12.98          9.263         -73.93          81.38         -162.9          59.79          84.76
    0.0664              -38.68           16.8          75.94          63.34         -12.97           9.25         -73.83          81.33         -162.8           59.8          84.74
   0.07008              -38.69          16.79          75.91          63.33         -12.96          9.236         -73.72          81.28         -162.8          59.82          84.73
   0.07377               -38.7          16.78          75.88          63.31         -12.95           9.22         -73.59          81.23         -162.7          59.83          84.71
   0.07746              -38.71          16.77          75.85          63.29         -12.93          9.203         -73.46          81.16         -162.6          59.84          84.69
   0.08115              -38.73          16.77          75.82          63.27         -12.92          9.184         -73.31          81.09         -162.6          59.86          84.67
   0.08484              -38.74          16.76          75.78          63.25          -12.9          9.163         -73.14          81.02         -162.5          59.87          84.64
   0.08853              -38.76          16.75          75.73          63.22         -12.88          9.139         -72.96          80.93         -162.4          59.89          84.61
   0.09222              -38.78          16.74          75.69          63.19         -12.86          9.113         -72.75          80.84         -162.3          59.91          84.58
   0.09591               -38.8          16.72          75.63          63.16         -12.84          9.084         -72.52          80.73         -162.2          59.93          84.55
   0.09959              -38.82          16.71          75.57          63.12         -12.82          9.051         -72.26          80.61         -162.1          59.96          84.51
    0.1033              -38.85          16.69           75.5          63.08         -12.79          9.014         -71.97          80.48         -162.0          59.99          84.47
     0.107              -38.88          16.67          75.42          63.03         -12.75          8.971         -71.63          80.33         -161.8          60.02          84.42
    0.1107              -38.91          16.65          75.33          62.98         -12.71          8.923         -71.25          80.15         -161.6          60.06          84.37
    0.1143              -38.96          16.63          75.23          62.91         -12.67          8.868         -70.82          79.95         -161.4           60.1           84.3
     0.118               -39.0           16.6          75.11          62.84         -12.62          8.804         -70.31          79.72         -161.2          60.15          84.23
    0.1217              -39.06          16.57          74.97          62.76         -12.56          8.729         -69.73          79.45         -160.9          60.21          84.14
    0.1254              -39.12          16.53          74.81          62.66         -12.49          8.643         -69.04          79.14         -160.6          60.28          84.04
    0.1291              -39.19          16.49          74.62          62.54         -12.41           8.54         -68.23          78.77         -160.3          60.36          83.92
    0.1328              -39.28          16.43           74.4          62.41         -12.32          8.418         -67.27          78.33         -159.8          60.45          83.78
    0.1365              -39.39          16.37          74.13          62.24          -12.2          8.272         -66.12           77.8         -159.3          60.57          83.61
